<?xml version="1.0" encoding="UTF-8" standalone="no"?>
<!-- Created with Inkscape (http://www.inkscape.org/) -->

<svg
   xmlns:osb="http://www.openswatchbook.org/uri/2009/osb"
   xmlns:dc="http://purl.org/dc/elements/1.1/"
   xmlns:cc="http://creativecommons.org/ns#"
   xmlns:rdf="http://www.w3.org/1999/02/22-rdf-syntax-ns#"
   xmlns:svg="http://www.w3.org/2000/svg"
   xmlns="http://www.w3.org/2000/svg"
   xmlns:xlink="http://www.w3.org/1999/xlink"
   xmlns:sodipodi="http://sodipodi.sourceforge.net/DTD/sodipodi-0.dtd"
   xmlns:inkscape="http://www.inkscape.org/namespaces/inkscape"
   width="136.78125"
   height="242.53125"
   id="svg2"
   version="1.1"
   inkscape:version="0.48.3.1 r9886"
   sodipodi:docname="narrow.svg">
  <defs
     id="defs4">
    <inkscape:perspective
       sodipodi:type="inkscape:persp3d"
       inkscape:vp_x="0 : 526.18109 : 1"
       inkscape:vp_y="0 : 1000 : 0"
       inkscape:vp_z="744.09448 : 526.18109 : 1"
       inkscape:persp3d-origin="372.04724 : 350.78739 : 1"
       id="perspective5368" />
    <linearGradient
       inkscape:collect="always"
       id="linearGradient5360">
      <stop
         style="stop-color:#000000;stop-opacity:1;"
         offset="0"
         id="stop5362" />
      <stop
         style="stop-color:#000000;stop-opacity:0;"
         offset="1"
         id="stop5364" />
    </linearGradient>
    <linearGradient
       id="linearGradient5354"
       osb:paint="solid">
      <stop
         style="stop-color:#000000;stop-opacity:0.69950742;"
         offset="0"
         id="stop5356" />
    </linearGradient>
    <linearGradient
       inkscape:collect="always"
       xlink:href="#linearGradient5360"
       id="linearGradient5366"
       x1="229.51123"
       y1="113.75225"
       x2="317.52151"
       y2="134.46654"
       gradientUnits="userSpaceOnUse" />
  </defs>
  <sodipodi:namedview
     id="base"
     pagecolor="#ffffff"
     bordercolor="#666666"
     borderopacity="1.0"
     inkscape:pageopacity="0.0"
     inkscape:pageshadow="2"
     inkscape:zoom="1.4"
     inkscape:cx="23.535781"
     inkscape:cy="122.69493"
     inkscape:document-units="px"
     inkscape:current-layer="layer1"
     showgrid="false"
     showguides="true"
     inkscape:guide-bbox="true"
     inkscape:snap-bbox="true"
     inkscape:object-paths="true"
     inkscape:window-width="1366"
     inkscape:window-height="720"
     inkscape:window-x="0"
     inkscape:window-y="0"
     inkscape:window-maximized="1"
     fit-margin-top="0"
     fit-margin-left="0"
     fit-margin-right="0"
     fit-margin-bottom="0" />
  <metadata
     id="metadata7">
    <rdf:RDF>
      <cc:Work
         rdf:about="">
        <dc:format>image/svg+xml</dc:format>
        <dc:type
           rdf:resource="http://purl.org/dc/dcmitype/StillImage" />
        <dc:title />
      </cc:Work>
    </rdf:RDF>
  </metadata>
  <g
     inkscape:label="Layer 1"
     inkscape:groupmode="layer"
     id="layer1"
     transform="translate(-188.9375,-11.3125)">
    <path
       style="fill:none;stroke:#000000;stroke-width:1px;stroke-linecap:butt;stroke-linejoin:miter;stroke-opacity:1"
       d="m 257.5889,253.33152 52.52793,0 c -18.57106,-32.07978 -35.51631,-71.8822 -43.43656,-154.55334 43.69007,-6.166545 43.52595,5.93949 57.5787,12.12183 -23.35948,-32.661599 -56.25902,-65.323198 -66.92261,-97.984796 -10.66358,32.661592 -43.56312,65.323192 -66.9226,97.984796 14.05275,-6.18234 13.88863,-18.288374 57.5787,-12.121834 -7.92025,82.671154 -24.8655,122.473574 -43.43656,154.553354 l 52.52793,0 z"
       id="path2985"
       inkscape:connector-curvature="0"
       sodipodi:nodetypes="cccccccccc" />
    <path
       style="fill:url(#linearGradient5366);fill-opacity:1;stroke:none"
       d="m 213.05466,239.69126 c 18.19905,-36.47104 27.90951,-72.29182 34.39311,-126.87224 0.91388,-7.69322 1.43118,-14.218098 1.14956,-14.499715 -1.19889,-1.198899 -17.99152,-2.445565 -25.94693,-1.926272 -9.99018,0.652114 -15.29769,2.295083 -21.7459,6.731567 -2.53307,1.7428 -4.76568,3.00863 -4.96136,2.81295 -0.19567,-0.19568 8.26322,-11.262784 18.79754,-24.59357 21.95588,-27.784324 30.53791,-40.199368 37.82004,-54.711691 l 5.15381,-10.270848 1.29791,3.704856 c 4.10396,11.71467 16.54049,30.486918 38.96507,58.815635 19.58803,24.745328 19.96654,25.248228 19.41682,25.797938 -0.27963,0.27963 -2.1715,-0.62018 -4.20417,-1.99959 -6.84735,-4.646734 -13.15829,-6.118386 -26.34061,-6.142377 -6.66701,-0.01213 -14.18404,0.32909 -16.70452,0.758274 l -4.58269,0.780336 1.76992,15.375257 c 5.94506,51.64459 15.62612,88.01831 32.64927,122.67002 l 8.08122,16.44982 -50.71747,-4.5e-4 -50.71747,-4.5e-4 6.42685,-12.87945 z"
       id="path3150"
       inkscape:connector-curvature="0"
       inkscape:export-filename="/home/debian/PTE-TTK_Anyagok/diplomamunka/www/res/image/narrow.png"
       inkscape:export-xdpi="95.491371"
       inkscape:export-ydpi="95.491371" />
  </g>
</svg>
