<?xml version="1.0" standalone="no"?>
<!DOCTYPE svg PUBLIC "-//W3C//DTD SVG 20010904//EN"
 "http://www.w3.org/TR/2001/REC-SVG-20010904/DTD/svg10.dtd">
<svg version="1.0" xmlns="http://www.w3.org/2000/svg"
 width="954.000000pt" height="954.000000pt" viewBox="0 0 954.000000 954.000000"
 preserveAspectRatio="xMidYMid meet">
<metadata>
Created by potrace 1.14, written by Peter Selinger 2001-2017
</metadata>
<g transform="translate(0.000000,954.000000) scale(0.100000,-0.100000)"
fill="#000000" stroke="none">
<path d="M1469 9536 c-2 -2 -22 -6 -44 -9 -173 -24 -383 -156 -494 -312 -93
-130 -131 -228 -148 -385 -10 -87 -9 -3797 1 -3875 4 -38 10 -79 12 -90 2 -11
6 -40 9 -65 3 -25 8 -54 10 -66 3 -12 9 -52 15 -90 10 -68 15 -96 25 -151 3
-16 7 -37 9 -48 2 -11 7 -36 11 -55 5 -19 9 -42 10 -50 0 -8 4 -21 8 -27 5 -7
6 -13 3 -13 -2 0 2 -23 10 -52 7 -29 11 -54 9 -56 -2 -3 0 -13 6 -23 5 -10 14
-38 18 -61 5 -24 12 -54 16 -68 4 -14 8 -32 9 -40 1 -9 5 -20 9 -26 3 -6 9
-30 13 -53 4 -23 11 -44 15 -47 5 -3 9 -15 9 -27 0 -12 7 -42 16 -67 9 -25 17
-52 19 -60 2 -8 15 -49 29 -90 15 -41 27 -76 27 -77 0 -6 29 -94 40 -118 4
-11 29 -74 54 -140 55 -144 176 -418 188 -426 5 -3 9 -10 9 -15 -1 -20 148
-300 217 -409 17 -27 34 -58 37 -67 4 -10 10 -18 15 -18 5 0 9 -5 9 -10 0 -12
191 -302 210 -320 3 -3 17 -21 30 -40 13 -19 27 -37 30 -40 3 -3 25 -32 49
-65 25 -33 47 -62 51 -65 3 -3 34 -40 69 -83 100 -123 134 -160 336 -362 170
-171 266 -260 343 -320 14 -11 45 -37 70 -58 100 -85 519 -387 538 -387 8 0
69 -44 72 -52 2 -5 8 -8 13 -8 6 0 47 -22 92 -49 45 -27 111 -66 147 -86 64
-35 486 -248 505 -254 21 -7 52 -20 100 -42 28 -12 55 -23 60 -24 6 -2 30 -12
55 -23 114 -52 192 -67 335 -66 117 0 162 6 228 31 23 8 49 16 57 18 8 2 40
14 70 28 55 24 90 39 100 42 6 2 72 32 175 80 95 44 270 131 340 170 28 15 79
43 115 63 36 19 72 41 81 48 8 8 18 14 22 14 9 0 112 64 115 73 2 4 8 7 14 7
5 0 43 22 84 50 41 27 78 50 83 50 5 0 11 4 13 8 2 4 27 23 56 42 28 18 52 37
52 42 0 4 5 8 11 8 6 0 24 10 39 22 16 13 53 41 84 63 30 22 55 43 56 48 0 4
6 7 14 7 8 0 16 3 18 8 2 4 28 27 58 52 30 24 57 48 58 52 2 5 8 8 14 8 6 0
18 8 27 17 9 10 47 45 86 78 38 33 83 74 100 90 144 138 214 207 300 300 55
60 108 117 118 127 9 10 17 22 17 27 0 5 4 11 9 13 5 2 36 37 70 78 74 91 67
82 121 155 25 33 47 62 50 65 4 3 22 28 41 55 18 28 37 52 42 53 4 2 7 10 7
17 0 7 3 15 8 17 10 5 52 66 52 77 0 5 4 11 8 13 30 12 382 635 382 676 0 5 7
15 15 22 8 7 15 18 15 25 0 7 18 51 39 97 103 218 268 685 327 923 1 6 12 48
24 95 12 47 23 94 25 105 2 11 4 20 5 20 1 0 3 7 5 15 1 8 13 60 25 115 26
118 25 116 35 180 5 28 9 52 10 55 1 3 5 28 9 55 4 28 10 61 12 75 7 37 22
137 29 200 4 30 10 66 13 80 8 34 7 3835 -1 3885 -11 65 -17 99 -24 120 -4 11
-8 26 -9 33 -6 31 -68 151 -110 209 -56 79 -99 122 -176 179 -58 42 -178 109
-178 99 0 -3 -13 1 -28 9 -16 8 -64 21 -108 30 -70 14 -453 15 -3365 16 -1807
0 -3288 -2 -3290 -4z m6561 -380 c50 -7 145 -42 174 -66 84 -65 145 -152 168
-238 13 -48 26 -3659 14 -3792 -2 -25 -7 -70 -11 -100 -4 -30 -9 -68 -10 -85
-2 -16 -4 -30 -5 -30 -1 0 -3 -13 -5 -30 -2 -16 -8 -57 -14 -90 -6 -33 -13
-73 -15 -90 -8 -49 -15 -88 -21 -115 -3 -14 -8 -36 -11 -50 -12 -70 -18 -101
-24 -117 -1 -5 -2 -11 -1 -15 0 -4 -6 -25 -13 -46 -8 -22 -12 -42 -9 -45 2 -3
0 -14 -5 -24 -6 -10 -13 -34 -16 -53 -3 -19 -13 -59 -22 -89 -9 -30 -18 -64
-20 -75 -6 -30 -43 -155 -60 -199 -7 -20 -14 -39 -14 -42 -1 -9 -43 -138 -57
-175 -3 -8 -7 -19 -8 -25 -4 -15 -75 -194 -96 -242 -11 -23 -19 -44 -19 -47 0
-13 -208 -445 -220 -456 -3 -3 -16 -25 -29 -50 -26 -50 -163 -282 -171 -290
-13 -13 -50 -70 -50 -77 0 -4 -10 -20 -23 -35 -12 -15 -38 -50 -57 -78 -41
-59 -147 -199 -189 -250 -16 -19 -42 -51 -58 -70 -140 -172 -426 -461 -588
-595 -27 -22 -57 -48 -67 -58 -10 -9 -22 -17 -27 -17 -5 0 -11 -4 -13 -9 -3
-8 -91 -78 -184 -146 -15 -11 -32 -25 -38 -30 -6 -6 -28 -21 -49 -34 -21 -13
-43 -28 -50 -34 -23 -22 -108 -77 -117 -77 -6 0 -10 -3 -10 -7 0 -5 -23 -21
-51 -38 -28 -16 -63 -37 -78 -46 -80 -50 -253 -149 -261 -149 -4 0 -10 -3 -12
-8 -3 -7 -308 -160 -413 -207 -75 -33 -109 -48 -115 -50 -3 -1 -23 -9 -45 -19
-231 -102 -286 -96 -660 74 -168 76 -511 252 -525 269 -3 3 -23 15 -45 26 -22
11 -42 22 -45 25 -3 3 -14 10 -25 17 -11 7 -44 27 -73 45 -30 18 -61 38 -70
43 -31 19 -77 50 -82 55 -3 3 -32 23 -65 45 -77 51 -179 127 -183 137 -2 4 -8
8 -13 8 -8 0 -144 106 -185 145 -6 5 -36 30 -65 55 -182 152 -479 455 -588
600 -14 19 -34 41 -43 48 -10 7 -18 17 -18 22 0 5 -12 22 -26 37 -56 60 -308
426 -370 538 -6 11 -20 36 -32 55 -83 137 -248 474 -329 675 -31 76 -113 295
-118 315 -2 8 -4 15 -5 15 -1 0 -3 7 -5 15 -2 8 -13 42 -24 74 -12 33 -21 65
-21 72 0 7 -5 25 -12 41 -12 31 -15 39 -22 71 -3 12 -7 26 -10 30 -3 5 -7 19
-10 33 -2 13 -9 44 -15 69 -7 25 -13 53 -16 63 -2 10 -7 28 -11 40 -4 12 -8
31 -10 42 -1 11 -10 48 -19 82 -8 34 -17 75 -20 92 -2 17 -6 38 -9 48 -3 10
-7 30 -10 46 -3 15 -10 53 -15 85 -6 31 -13 73 -16 92 -3 19 -7 46 -10 60 -8
44 -14 83 -25 175 -7 50 -14 101 -16 115 -4 25 -4 908 -2 2780 1 773 4 993 14
1023 7 20 13 39 13 42 1 13 32 77 43 89 7 8 22 26 33 41 46 64 168 132 249
139 20 2 38 5 40 7 7 7 6438 2 6486 -5z"/>
<path d="M1576 8750 c-6 -12 -7 -3656 -1 -3695 2 -16 7 -54 10 -83 4 -29 8
-63 11 -75 2 -12 7 -41 10 -65 3 -24 12 -80 20 -125 8 -45 16 -95 18 -112 3
-16 7 -41 10 -55 10 -51 28 -135 30 -145 1 -5 11 -46 20 -90 10 -44 27 -111
38 -150 10 -38 21 -80 24 -92 2 -12 8 -33 13 -45 5 -13 9 -27 10 -33 2 -20 74
-243 107 -330 19 -50 34 -94 34 -98 0 -4 9 -26 19 -50 11 -23 40 -91 66 -152
61 -142 151 -323 232 -465 44 -76 137 -227 160 -256 12 -17 23 -34 23 -37 0
-4 6 -15 14 -24 28 -35 146 -195 146 -198 0 -2 11 -16 24 -31 13 -16 43 -51
67 -79 120 -143 155 -181 289 -315 80 -80 163 -161 185 -181 68 -60 267 -222
325 -264 30 -21 57 -42 60 -45 3 -3 32 -23 65 -45 33 -22 62 -42 65 -45 13
-13 126 -84 131 -83 4 1 15 -7 24 -17 10 -11 24 -20 32 -20 7 0 13 -4 13 -10
0 -5 5 -10 10 -10 6 0 29 -12 53 -27 23 -15 53 -33 67 -40 14 -7 52 -29 85
-48 33 -18 103 -56 155 -82 52 -26 97 -51 98 -55 2 -5 8 -8 13 -8 4 0 39 -14
76 -31 38 -17 106 -48 153 -69 199 -89 197 -88 242 -71 13 5 26 9 30 10 4 1
38 16 75 32 38 17 82 36 98 44 17 7 55 24 85 38 30 13 65 27 78 31 12 4 22 12
22 17 0 5 6 9 14 9 13 0 224 104 311 154 22 12 63 35 90 51 136 77 381 242
462 313 17 15 47 38 65 52 42 32 305 295 338 338 14 18 33 43 44 55 83 99 238
394 262 500 1 4 3 9 4 12 1 3 4 10 5 15 1 6 3 11 5 13 1 1 3 9 5 17 2 8 11 40
19 70 8 30 17 71 20 90 3 19 8 45 10 57 18 89 25 304 12 393 -10 64 -17 111
-23 145 -21 130 -162 430 -227 484 -9 7 -16 18 -16 23 0 26 -279 278 -308 278
-6 0 -12 6 -15 13 -10 29 -17 -4 -8 -39 9 -38 14 -62 28 -154 14 -87 8 -291
-11 -365 -10 -38 -21 -74 -25 -80 -3 -5 -6 -12 -6 -15 -3 -27 -95 -175 -120
-192 -10 -7 -20 16 -31 72 -13 66 -79 221 -96 228 -4 2 -8 8 -8 13 0 11 -44
62 -84 98 -16 14 -34 31 -40 37 -22 22 -162 92 -221 112 -57 19 -147 42 -190
48 -11 2 -38 6 -60 9 -58 8 -129 15 -217 20 l-78 5 5 -37 c3 -21 7 -51 10 -68
2 -16 7 -52 11 -80 3 -27 10 -72 14 -98 4 -26 4 -50 -1 -52 -4 -3 -9 -1 -11 4
-4 11 -173 91 -191 91 -7 0 -17 4 -22 8 -6 5 -37 15 -70 22 -33 7 -76 16 -95
21 -36 9 -310 5 -345 -5 -35 -10 -99 -26 -122 -31 -69 -15 -314 -139 -387
-196 -121 -93 -253 -213 -311 -281 -19 -22 -47 -30 -62 -18 -2 2 -6 3 -10 4
-87 20 -249 101 -378 187 -92 61 -105 67 -165 72 -36 3 -80 10 -98 16 -18 5
-33 10 -35 9 -1 0 -22 6 -47 13 -25 7 -47 13 -50 14 -20 4 -199 95 -204 104
-4 6 -11 9 -15 6 -5 -2 -16 4 -26 15 -10 11 -22 20 -27 20 -26 0 -318 245
-318 266 0 8 147 229 162 245 8 8 24 28 36 44 52 67 135 155 281 299 484 476
555 553 630 691 74 135 88 258 45 380 -14 39 -27 77 -30 85 -2 8 13 35 35 59
22 23 51 56 64 72 89 108 344 371 464 479 109 99 153 133 318 255 41 31 264
165 274 165 4 0 39 17 76 38 63 34 95 67 111 115 4 9 10 17 14 17 4 0 24 28
46 63 21 34 43 68 50 74 7 7 22 29 35 50 13 21 26 40 29 43 4 3 15 20 25 38
11 17 23 32 27 32 4 0 8 6 8 13 0 7 8 22 18 33 9 10 44 57 77 104 32 47 63 90
67 95 4 6 65 87 135 180 118 159 211 280 292 379 51 63 105 128 116 140 6 6
35 40 65 76 30 36 67 79 82 95 16 17 28 33 28 38 0 17 22 5 52 -30 18 -20 41
-45 51 -55 9 -10 17 -21 17 -24 0 -3 13 -24 28 -47 16 -23 36 -58 44 -77 38
-81 57 -130 51 -130 -3 0 -1 -6 5 -13 6 -7 13 -24 15 -37 2 -14 7 -32 10 -40
4 -8 8 -28 11 -45 2 -16 5 -30 6 -30 2 0 4 -16 15 -130 9 -93 9 -247 1 -358
-6 -76 -6 -78 16 -74 13 2 36 9 52 16 16 6 36 13 45 14 9 1 22 6 29 10 6 5 12
6 12 3 0 -3 12 -1 28 5 15 6 35 13 45 15 9 2 25 6 35 9 53 14 259 67 272 70 8
2 59 13 114 25 54 12 108 23 120 26 11 2 35 7 51 11 17 3 37 7 45 8 8 2 29 5
46 9 17 3 46 8 65 10 19 3 45 8 59 11 14 3 43 8 65 11 22 2 51 7 65 9 40 6
180 24 240 30 30 3 71 7 90 10 89 11 142 16 235 21 84 5 131 8 221 13 8 1 11
174 10 629 l-1 627 -3218 0 c-1770 1 -3220 -2 -3221 -5z"/>
</g>
</svg>
