<?xml version="1.0" encoding="UTF-8"?>
<svg width="400" height="300" version="1.1" viewBox="0 0 400 300" xml:space="preserve" xmlns="http://www.w3.org/2000/svg"><g fill="#0284c7"><path d="m32.857 233.16a17.143 17.143 0 1 0 34.286 0 17.143 17.143 0 1 0-34.286 0zm12.656 26.813 2.4911 4.1518-4.4598 16.594-4.8214-19.674c-0.26786-1.0848-1.3125-1.7946-2.3973-1.5134-9.375 2.3438-16.326 10.835-16.326 20.946 0 2.2768 1.8482 4.1116 4.1116 4.1116h17.652 0.01339 16.46 0.0134 17.638c2.2768 0 4.1116-1.8482 4.1116-4.1116 0-10.112-6.9509-18.603-16.326-20.946-1.0848-0.26786-2.1295 0.44197-2.3973 1.5134l-4.8214 19.674-4.4598-16.594 2.4911-4.1518c0.85714-1.433-0.17411-3.2411-1.8348-3.2411h-5.2902c-1.6607 0-2.692 1.8214-1.8348 3.2411z" stroke-width=".13393"/><path d="m150.32 233.99-9.0751 7.3501c-1.5094 1.2188-1.8 3.4125-0.65626 4.9782 1.2094 1.6688 3.5626 1.9969 5.1844 0.73126l9.3095-7.2376c0.65626-0.50626 1.5938-0.39375 2.1094 0.2625 0.51562 0.65626 0.39375 1.5938-0.26251 2.1094l-1.9594 1.5188 13.031 12v-17.7h-0.0656l-0.36563-0.23437-6.8063-4.3594c-1.4344-0.91876-3.1125-1.4063-4.8188-1.4063-2.0438 0-4.0313 0.70313-5.6251 1.9875zm2.1375 11.663-4.8469 3.7688c-2.9532 2.3063-7.2376 1.7063-9.4501-1.3313-2.0813-2.8594-1.5563-6.8532 1.1906-9.0751l7.8001-6.3095c-1.0875-0.45938-2.2594-0.69376-3.45-0.69376-1.7625-9e-3 -3.4782 0.51563-4.9501 1.4906l-6.7501 4.5v21h2.6438l8.5689 7.8188c1.8375 1.6782 4.6782 1.5469 6.3563-0.29063 0.51563-0.57188 0.86251-1.2375 1.0406-1.9313l1.5938 1.4625c1.8281 1.6781 4.6782 1.5563 6.3563-0.27188 0.42188-0.45938 0.73126-0.99376 0.92813-1.5469 1.8188 1.2188 4.2938 0.96564 5.822-0.70313 1.6781-1.8282 1.5563-4.6782-0.27188-6.3563zm-30.957-7.6501c-0.82501 0-1.5 0.67501-1.5 1.5v19.5c0 1.6594 1.3406 3 3 3h3c1.6594 0 3-1.3406 3-3v-21zm3 18a1.5 1.5 0 1 1 0 3 1.5 1.5 0 1 1 0-3zm46.501-18v21c0 1.6594 1.3406 3 3 3h3c1.6594 0 3-1.3406 3-3v-19.5c0-0.82501-0.67501-1.5-1.5-1.5zm3 19.5a1.5 1.5 0 1 1 3 0 1.5 1.5 0 1 1-3 0z" stroke-width=".093751"/><path d="m58.996 142.5c0 9.1115-8.7272 16.498-19.498 16.498-3.5809 0-6.9274-0.81553-9.8146-2.2404-0.70305 0.37496-1.4998 0.74054-2.3623 1.0686-1.7154 0.64681-3.7777 1.1718-5.8213 1.1718-0.64681 0-1.228-0.42183-1.4248-1.0405-0.19685-0.61869 0.01875-1.2936 0.54369-1.678l0.01875-0.0187c0.01875-0.0188 0.05624-0.0375 0.10311-0.075 0.09374-0.075 0.23435-0.18748 0.40308-0.34684 0.33746-0.30934 0.79679-0.75929 1.2467-1.3405 0.51557-0.65618 1.003-1.4436 1.3311-2.3154-2.3435-2.7185-3.7215-6.065-3.7215-9.6834 0-9.1115 8.7272-16.498 19.498-16.498 10.771 0 19.498 7.3867 19.498 16.498zm-17.295 19.404c11.005-0.94678 20.295-8.8772 20.295-19.404 0-0.48745-0.01875-0.9749-0.05624-1.453 10.096 0.61868 18.054 7.7523 18.054 16.451 0 3.6184-1.378 6.9649-3.7121 9.6927 0.32809 0.88116 0.81554 1.6592 1.3311 2.3154 0.44995 0.58119 0.90928 1.0311 1.2467 1.3405 0.16873 0.14998 0.30934 0.27184 0.40308 0.34684 0.04687 0.0375 0.08437 0.0656 0.10311 0.075l0.01875 0.0187c0.52494 0.38433 0.74055 1.0593 0.54369 1.6779-0.19685 0.61869-0.77804 1.0405-1.4248 1.0405-2.0435 0-4.1058-0.52495-5.8213-1.1718-0.86241-0.32809-1.6686-0.69368-2.3623-1.0686-2.8966 1.4155-6.2431 2.231-9.824 2.231-8.9616 0-16.517-5.1182-18.795-12.092zm-0.32809-29.153c0-1.0311-0.84366-1.8748-1.8748-1.8748-1.0311 0-1.8748 0.84367-1.8748 1.8748v1.3124c-0.71242 0.15936-1.4248 0.41246-2.081 0.79679-1.303 0.77804-2.4279 2.1373-2.4185 4.1152 0.0094 1.9029 1.1249 3.1028 2.3154 3.8152 1.0311 0.61868 2.3154 1.0124 3.3371 1.3124l0.15936 0.0469c1.1811 0.35621 2.0435 0.63743 2.6247 1.003 0.47808 0.29997 0.54369 0.50619 0.55307 0.76867 0.0094 0.4687-0.16873 0.74992-0.55307 0.98427-0.4687 0.29059-1.2092 0.4687-2.006 0.44058-1.0405-0.0375-2.0154-0.36559-3.2903-0.79679-0.2156-0.075-0.44058-0.14999-0.67493-0.22498-0.98427-0.32809-2.0435 0.20623-2.3716 1.1811-0.32809 0.9749 0.20623 2.0435 1.1811 2.3716 0.17811 0.0562 0.37496 0.12186 0.57182 0.19685 0.77804 0.27185 1.6779 0.58119 2.6435 0.78742v1.3874c0 1.0311 0.84366 1.8748 1.8748 1.8748 1.0311 0 1.8748-0.84366 1.8748-1.8748v-1.2936c0.74992-0.15936 1.4998-0.42183 2.1748-0.84366 1.3405-0.83429 2.3529-2.2591 2.3248-4.2183-0.02812-1.9029-1.0968-3.1309-2.306-3.8996-1.078-0.67492-2.4279-1.0874-3.4778-1.4061l-0.06562-0.0188c-1.1999-0.36558-2.0529-0.62806-2.6528-0.98427-0.48745-0.29059-0.49682-0.45933-0.49682-0.62806 0-0.34684 0.13124-0.60931 0.58119-0.87178 0.5062-0.29997 1.2749-0.47808 2.0154-0.4687 0.8999 9e-3 1.8936 0.20623 2.9247 0.48745 1.003 0.26247 2.0248-0.32809 2.2966-1.3311s-0.32809-2.0248-1.3311-2.2966c-0.60931-0.15935-1.2842-0.31871-1.9779-0.44058z" stroke-width=".09374"/><path d="m27.5 24c-4.1367 0-7.5 3.3633-7.5 7.5v7.5c0 4.1367 3.3633 7.5 7.5 7.5h45c4.1367 0 7.5-3.3633 7.5-7.5v-7.5c0-4.1367-3.3633-7.5-7.5-7.5zm32.812 8.4375a2.8125 2.8125 0 1 1 0 5.625 2.8125 2.8125 0 1 1 0-5.625zm5.625 2.8125a2.8125 2.8125 0 1 1 5.625 0 2.8125 2.8125 0 1 1-5.625 0zm-38.438 18.75c-4.1367 0-7.5 3.3633-7.5 7.5v7.5c0 4.1367 3.3633 7.5 7.5 7.5h45c4.1367 0 7.5-3.3633 7.5-7.5v-7.5c0-4.1367-3.3633-7.5-7.5-7.5zm32.812 8.4375a2.8125 2.8125 0 1 1 0 5.625 2.8125 2.8125 0 1 1 0-5.625zm6.5625 2.8125a2.8125 2.8125 0 1 1 5.625 0 2.8125 2.8125 0 1 1-5.625 0z" stroke-width=".11719"/><path d="m178.87 47.328-26.199-26.199a3.8709 3.8709 0 0 0-5.4648 0l-5.4514 5.438 6.898 6.898c3.6298-1.2189 7.0587 2.2502 5.813 5.8532l6.6569 6.6569c4.5808-1.5805 8.1972 4.1522 4.7549 7.5945-3.5494 3.5494-9.4026-0.38843-7.5007-4.996l-6.2149-6.2149v16.327c3.3887 1.6743 2.9869 5.6121 1.2189 7.3668a4.5942 4.5942 0 0 1-6.5095 0c-2.3574-2.3574-1.4867-6.2818 1.5135-7.5007v-16.475c-2.786-1.1385-3.295-4.112-2.4913-6.0273l-6.8042-6.8176-17.961 17.961a3.8709 3.8709 0 0 0 0 5.4648l26.199 26.199a3.8709 3.8709 0 0 0 5.4648 0l26.078-26.078a3.8709 3.8709 0 0 0 0-5.4648z" stroke-width=".13394"/><path d="m241.67 132c0-2.7604 2.2396-5 5-5h6.6667c2.7604 0 5 2.2396 5 5v6.6667c0 2.7604-2.2396 5-5 5h-0.83333v4.1667h15.833c3.2188 0 5.8333 2.6146 5.8333 5.8333v3.3333h0.83334c2.7604 0 5 2.2396 5 5v6.6667c0 2.7604-2.2396 5-5 5h-6.6667c-2.7604 0-5-2.2396-5-5v-6.6667c0-2.7604 2.2396-5 5-5h0.83333v-3.3333c0-0.45833-0.375-0.83333-0.83333-0.83333h-15.833v4.1667h0.83333c2.7604 0 5 2.2396 5 5v6.6667c0 2.7604-2.2396 5-5 5h-6.6667c-2.7604 0-5-2.2396-5-5v-6.6667c0-2.7604 2.2396-5 5-5h0.83334v-4.1667h-15.833c-0.45833 0-0.83333 0.375-0.83333 0.83333v3.3333h0.83333c2.7604 0 5 2.2396 5 5v6.6667c0 2.7604-2.2396 5-5 5h-6.6667c-2.7604 0-5-2.2396-5-5v-6.6667c0-2.7604 2.2396-5 5-5h0.83333v-3.3333c0-3.2188 2.6146-5.8333 5.8333-5.8333h15.833v-4.1667h-0.83334c-2.7604 0-5-2.2396-5-5z" stroke-width=".10417"/><path d="m250 18c0.57499 0 1.15 0.125 1.675 0.3625l23.537 9.9875c2.75 1.1625 4.8 3.875 4.7875 7.15-0.0625 12.4-5.1625 35.087-26.7 45.4-2.0875 1-4.5125 1-6.6 0-21.537-10.312-26.637-33-26.7-45.4-0.0125-3.275 2.0375-5.9875 4.7875-7.15l23.55-9.9875c0.5125-0.2375 1.0875-0.3625 1.6625-0.3625zm0 8.35v47.25c17.25-8.35 21.887-26.837 22-37.925z" stroke-width=".125"/><path d="m352.81 148.15h-6.1965v-5.5684h6.1965zm0-19.152h-6.1965v5.6903h6.1965zm7.3308 13.574h-6.1965v5.5684h6.1965zm-14.652-6.759h-6.1965v5.6341h6.1965zm7.3215 0h-6.1965v5.6341h6.1965zm25.949 9.3745c-1.3499-0.90932-4.4622-1.2374-6.8527-0.78746-0.30936-2.2499-1.5655-4.2091-3.8529-5.9715l-1.3124-0.87183-0.87182 1.3124c-1.7249 2.6061-2.1936 6.8996-0.34686 9.7307-0.81558 0.4406-2.4186 1.0406-4.5372 1.0031h-40.751c-0.81558 4.7622 0.54372 10.949 4.1248 15.196 3.4779 4.1154 8.6901 6.2059 15.505 6.2059 14.755 0 25.677-6.7965 30.786-19.143 2.0061 0.0375 6.3371 9e-3 8.5589-4.2373 0.14061-0.23436 0.61871-1.2374 0.79683-1.603zm-47.913-2.6155h-6.1872v5.5684h6.1965v-5.5684zm7.3215 0h-6.1965v5.5684h6.1965zm7.3215 0h-6.1965v5.5684h6.1965zm-7.3215-6.759h-6.1965v5.6341h6.1965z" stroke-width=".093745"/><path d="m380 27.714v6.4286c0 5.9196-13.433 10.714-30 10.714s-30-4.7946-30-10.714v-6.4286c0-5.9196 13.433-10.714 30-10.714s30 4.7946 30 10.714zm-7.3393 18.04c2.7857-0.99107 5.3438-2.2634 7.3393-3.8304v13.647c0 5.9196-13.433 10.714-30 10.714s-30-4.7946-30-10.714v-13.647c1.9955 1.5804 4.5536 2.8393 7.3393 3.8304 6.0134 2.1429 14.022 3.3884 22.661 3.3884s16.647-1.2455 22.661-3.3884zm-52.661 17.598c1.9955 1.5804 4.5536 2.8393 7.3393 3.8304 6.0134 2.1428 14.022 3.3884 22.661 3.3884s16.647-1.2455 22.661-3.3884c2.7857-0.99108 5.3438-2.2634 7.3393-3.8304v11.504c0 5.9196-13.433 10.714-30 10.714s-30-4.7946-30-10.714z" stroke-width=".13393"/><path d="m326.75 234.25a5.25 5.25 0 1 1 10.5 0 5.25 5.25 0 1 1-10.5 0zm-0.75 14.784c-0.9375 1.05-1.5 2.4469-1.5 3.9656s0.5625 2.9156 1.5 3.9656zm13.538-4.6219c-2.7844 2.4656-4.5375 6.075-4.5375 10.087 0 3.2156 1.125 6.1688 3 8.4844v2.0156c0 1.6594-1.3406 3-3 3h-6c-1.6594 0-3-1.3406-3-3v-2.5125c-3.5438-1.6875-6-5.2969-6-9.4875 0-5.8031 4.6969-10.5 10.5-10.5h3c2.25 0 4.3312 0.70312 6.0375 1.9031zm22.462 20.587v-2.0156c1.875-2.3156 3-5.2688 3-8.4844 0-4.0125-1.7531-7.6219-4.5375-10.097 1.7062-1.2 3.7875-1.9031 6.0375-1.9031h3c5.8031 0 10.5 4.6969 10.5 10.5 0 4.1906-2.4562 7.8-6 9.4875v2.5125c0 1.6594-1.3406 3-3 3h-6c-1.6594 0-3-1.3406-3-3zm0.75-30.75a5.25 5.25 0 1 1 10.5 0 5.25 5.25 0 1 1-10.5 0zm11.25 14.784v7.9406c0.9375-1.0594 1.5-2.4469 1.5-3.9656s-0.5625-2.9156-1.5-3.9656zm-24-20.034a6 6 0 1 1 0 12 6 6 0 1 1 0-12zm-7.5 25.5c0 1.5188 0.5625 2.9062 1.5 3.9656v-7.9312c-0.9375 1.0594-1.5 2.4469-1.5 3.9656zm13.5-3.9656v7.9406c0.9375-1.0594 1.5-2.4469 1.5-3.9656s-0.5625-2.9156-1.5-3.9656zm6 3.9656c0 4.1906-2.4562 7.8-6 9.4875v4.0125c0 1.6594-1.3406 3-3 3h-6c-1.6594 0-3-1.3406-3-3v-4.0125c-3.5438-1.6875-6-5.2969-6-9.4875 0-5.8031 4.6969-10.5 10.5-10.5h3c5.8031 0 10.5 4.6969 10.5 10.5z" stroke-width=".09375"/><path d="m156.83 126.12c-1.5939-0.45941-3.2534 0.46879-3.7128 2.0627l-12.001 42.003c-0.45941 1.5939 0.46879 3.2534 2.0627 3.7128s3.2534-0.46879 3.7128-2.0627l12.001-42.003c0.45941-1.5939-0.46879-3.2534-2.0627-3.7128zm7.5568 11.26c-1.172 1.172-1.172 3.0752 0 4.2472l8.3725 8.3819-8.3819 8.3819c-1.172 1.172-1.172 3.0752 0 4.2472 1.172 1.172 3.0752 1.172 4.2472 0l10.501-10.501c1.172-1.172 1.172-3.0752 0-4.2472l-10.501-10.501c-1.172-1.172-3.0752-1.172-4.2472 0zm-28.755 0c-1.172-1.172-3.0752-1.172-4.2472 0l-10.501 10.501c-1.172 1.172-1.172 3.0752 0 4.2472l10.501 10.501c1.172 1.172 3.0752 1.172 4.2472 0 1.172-1.172 1.172-3.0752 0-4.2472l-8.3819-8.3725 8.3819-8.3819c1.172-1.172 1.172-3.0752 0-4.2472z" stroke-width=".093757"/><path d="m239.4 229.32c-2.8323 2.3696-5.1681 4.363-5.1904 4.4301-0.0352 0.1056 10.296 8.8227 10.456 8.8227 0.033 0 0.06-1.1362 0.06-2.5248v-2.525l0.43935 0.0789c7.8064 1.401 12.246 10.057 8.8299 17.217-1.9154 4.0148-5.64 6.5742-10.148 6.9735-0.72615 0.0643-6.2142 0.11475-12.568 0.11535l-11.279 7.9e-4v7.0382l12.861-0.0341c14.472-0.0384 13.439 0.0224 16.382-0.9624 11.999-4.0152 16.942-18.844 9.7551-29.268-3.1036-4.502-9.3267-8.2965-13.606-8.2965-0.68535 0-0.66495 0.0849-0.66495-2.7664 0-1.4433-0.0396-2.6204-0.0879-2.6156-0.0483 5e-3 -2.4054 1.9472-5.2378 4.3167m-10.302 6.7782c-5.515 5.6085-7.0696 14.29-3.8188 21.327l0.44715 0.96794h8.6984l-0.7611-0.90465c-4.4224-5.2558-3.7088-12.899 1.6198-17.345l0.57705-0.4815-0.3426-0.28815c-3.231-2.7162-5.1732-4.2978-5.2796-4.2994-0.0726-1e-3 -0.58575 0.45945-1.1403 1.0234m40.237 23.174v2.6367l-7.207 0.00105-0.8388 1.1421c-1.4886 2.027-3.1586 3.6578-5.3552 5.2296l-0.9204 0.65865h14.321v2.6367c0 1.4502 0.0268 2.6369 0.0595 2.6369 0.12 0 10.605-8.6898 10.605-8.7891 0-0.0995-10.485-8.7891-10.605-8.7891-0.0327 0-0.0595 1.1865-0.0595 2.6367" fill-rule="evenodd" stroke-width=".15"/></g></svg>
